<?xml version="1.0" encoding="UTF-8"?>
<svg xmlns="http://www.w3.org/2000/svg" xmlns:xlink="http://www.w3.org/1999/xlink" width="80px" height="28px" viewBox="0 0 80 28" version="1.1">
<g id="surface1">
<path style=" stroke:none;fill-rule:nonzero;fill:rgb(0%,0%,0%);fill-opacity:1;" d="M 1.734375 14.066406 L 1.734375 26.382812 L 2.667969 26.382812 L 2.691406 14.566406 L 2.734375 2.757812 L 9.933594 2.757812 C 15.464844 2.757812 17.292969 2.800781 17.800781 2.933594 C 20.71875 3.714844 22.988281 5.882812 23.746094 8.617188 C 24.148438 10.070312 24.054688 12.316406 23.546875 13.664062 C 22.785156 15.640625 21.480469 17.175781 19.734375 18.09375 C 18.28125 18.875 17.691406 18.953125 13.640625 19.007812 L 10 19.046875 L 10 20.058594 L 13.453125 20.058594 C 17.625 20.058594 18.453125 19.9375 20.238281 19.046875 C 21.800781 18.265625 23.160156 16.960938 23.90625 15.535156 C 24.171875 14.996094 24.398438 14.484375 24.398438 14.390625 C 24.398438 14.28125 24.480469 14.039062 24.585938 13.851562 C 24.988281 13.070312 25.078125 9.90625 24.734375 8.546875 C 24.332031 6.988281 23.667969 5.855469 22.347656 4.523438 C 20.960938 3.109375 19.851562 2.449219 18.1875 2.019531 C 17.226562 1.761719 16.679688 1.75 9.441406 1.75 L 1.734375 1.75 Z M 1.734375 14.066406 "/>
<path style=" stroke:none;fill-rule:nonzero;fill:rgb(0%,0%,0%);fill-opacity:1;" d="M 3.867188 15.144531 L 3.867188 26.382812 L 4.800781 26.382812 L 4.800781 4.832031 L 11.105469 4.875 C 18.011719 4.925781 17.746094 4.898438 19.066406 5.800781 C 21.1875 7.253906 22.171875 9.34375 21.851562 11.671875 C 21.535156 13.960938 19.851562 16.019531 17.785156 16.625 C 17.238281 16.785156 16.320312 16.828125 13.546875 16.828125 L 10 16.828125 L 10 17.929688 L 13.773438 17.875 C 17.492188 17.824219 17.546875 17.824219 18.453125 17.460938 C 20.691406 16.570312 22.214844 14.742188 22.734375 12.332031 C 23 11.121094 22.945312 9.734375 22.601562 8.75 C 22.375 8.078125 21.574219 6.703125 21.148438 6.207031 C 20.761719 5.761719 19.640625 4.941406 18.945312 4.578125 C 17.640625 3.917969 17.558594 3.902344 10.507812 3.902344 L 3.867188 3.902344 Z M 3.867188 15.144531 "/>
<path style=" stroke:none;fill-rule:nonzero;fill:rgb(0%,0%,0%);fill-opacity:1;" d="M 6 16.222656 L 6 26.382812 L 6.933594 26.382812 L 6.933594 6.988281 L 11.972656 7.027344 C 16.828125 7.066406 17.011719 7.082031 17.535156 7.363281 C 18.320312 7.78125 19.1875 8.683594 19.492188 9.394531 C 20.066406 10.6875 19.746094 12.601562 18.785156 13.597656 C 17.800781 14.621094 17.535156 14.671875 13.519531 14.671875 L 10 14.671875 L 10 15.75 L 13.464844 15.75 C 16.640625 15.75 16.988281 15.722656 17.667969 15.46875 C 18.625 15.105469 19.425781 14.484375 19.960938 13.675781 C 20.546875 12.800781 20.734375 12.117188 20.734375 10.769531 C 20.734375 9.8125 20.679688 9.503906 20.386719 8.882812 C 19.945312 7.941406 18.933594 6.917969 18 6.476562 L 17.265625 6.125 L 11.640625 6.085938 L 6 6.042969 Z M 6 16.222656 "/>
<path style=" stroke:none;fill-rule:nonzero;fill:rgb(0%,0%,0%);fill-opacity:1;" d="M 8.132812 17.3125 L 8.132812 26.398438 L 8.574219 26.359375 L 9 26.316406 L 9.039062 17.730469 L 9.066406 9.140625 L 12.851562 9.179688 C 16.464844 9.222656 16.667969 9.234375 17.027344 9.503906 C 17.800781 10.082031 17.867188 11.589844 17.132812 12.210938 C 16.785156 12.519531 16.734375 12.519531 13.386719 12.519531 L 10 12.519531 L 10 13.597656 L 13.320312 13.597656 C 15.441406 13.597656 16.785156 13.542969 17.078125 13.449219 C 18.746094 12.882812 19.226562 10.378906 17.945312 8.980469 C 17.265625 8.238281 17.054688 8.210938 12.398438 8.210938 L 8.132812 8.210938 Z M 8.132812 17.3125 "/>
<path style=" stroke:none;fill-rule:nonzero;fill:rgb(0%,0%,0%);fill-opacity:1;" d="M 54.625 8.574219 C 54.453125 8.75 54.519531 15.65625 54.707031 16.019531 C 54.894531 16.382812 55.441406 16.558594 56.121094 16.449219 C 56.453125 16.410156 56.535156 16.328125 56.535156 16.074219 C 56.535156 15.832031 56.464844 15.75 56.226562 15.75 C 55.625 15.75 55.601562 15.617188 55.601562 12.167969 C 55.601562 9.382812 55.574219 8.871094 55.386719 8.695312 C 55.171875 8.480469 54.773438 8.414062 54.625 8.574219 Z M 54.625 8.574219 "/>
<path style=" stroke:none;fill-rule:nonzero;fill:rgb(0%,0%,0%);fill-opacity:1;" d="M 66.667969 9.140625 C 65.265625 9.636719 64.535156 10.917969 64.535156 12.855469 C 64.535156 14.578125 65.078125 15.75 66.171875 16.316406 C 66.828125 16.652344 68.292969 16.691406 69.398438 16.394531 L 70.066406 16.222656 L 70.105469 14.621094 C 70.132812 13.570312 70.09375 12.964844 69.988281 12.84375 C 69.761719 12.558594 67.785156 12.574219 67.679688 12.871094 C 67.574219 13.152344 67.574219 13.136719 67.8125 13.378906 C 67.933594 13.5 68.238281 13.597656 68.546875 13.597656 L 69.066406 13.597656 L 69.066406 14.523438 C 69.066406 15.050781 69 15.507812 68.933594 15.546875 C 68.851562 15.601562 68.414062 15.640625 67.960938 15.640625 C 66.332031 15.667969 65.691406 14.914062 65.679688 12.921875 C 65.679688 11.535156 65.867188 10.917969 66.480469 10.367188 C 66.878906 10.015625 67.039062 9.960938 67.707031 9.960938 C 68.1875 9.960938 68.691406 10.070312 69.066406 10.246094 L 69.667969 10.511719 L 69.894531 10.21875 C 70.027344 10.070312 70.132812 9.878906 70.132812 9.800781 C 70.132812 9.597656 68.785156 9.046875 68.066406 8.953125 C 67.585938 8.898438 67.1875 8.953125 66.667969 9.140625 Z M 66.667969 9.140625 "/>
<path style=" stroke:none;fill-rule:nonzero;fill:rgb(0%,0%,0%);fill-opacity:1;" d="M 29.265625 9.179688 C 29.226562 9.273438 29.214844 10.957031 29.226562 12.921875 L 29.265625 16.492188 L 30.199219 16.492188 L 30.238281 15.171875 L 30.28125 13.867188 L 31.171875 13.867188 C 32.214844 13.867188 33.078125 13.5 33.519531 12.882812 C 33.921875 12.332031 33.921875 10.554688 33.519531 10 C 32.972656 9.273438 32.480469 9.085938 30.839844 9.03125 C 29.652344 9.003906 29.320312 9.03125 29.265625 9.179688 Z M 32.332031 10.285156 C 32.734375 10.6875 32.867188 11.414062 32.667969 12.035156 C 32.441406 12.722656 32.09375 12.921875 31.105469 12.921875 L 30.265625 12.921875 L 30.265625 9.960938 L 31.132812 9.960938 C 31.878906 9.960938 32.054688 10.015625 32.332031 10.285156 Z M 32.332031 10.285156 "/>
<path style=" stroke:none;fill-rule:nonzero;fill:rgb(0%,0%,0%);fill-opacity:1;" d="M 71.933594 9.179688 C 71.894531 9.273438 71.878906 10.957031 71.894531 12.921875 L 71.933594 16.492188 L 72.867188 16.492188 L 72.90625 14.835938 L 72.945312 13.191406 L 75.988281 13.191406 L 76.027344 14.835938 L 76.066406 16.492188 L 77.132812 16.492188 L 77.132812 9.085938 L 76.066406 9.085938 L 76.027344 10.59375 L 75.988281 12.117188 L 72.945312 12.117188 L 72.90625 10.59375 L 72.867188 9.085938 L 72.425781 9.046875 C 72.160156 9.019531 71.972656 9.074219 71.933594 9.179688 Z M 71.933594 9.179688 "/>
<path style=" stroke:none;fill-rule:nonzero;fill:rgb(0%,0%,0%);fill-opacity:1;" d="M 35.558594 11.242188 C 34.761719 11.457031 34.746094 11.484375 34.851562 11.925781 C 34.933594 12.238281 35 12.261719 35.308594 12.183594 C 35.507812 12.140625 36.011719 12.0625 36.441406 12.019531 C 37.375 11.925781 37.601562 12.089844 37.601562 12.816406 L 37.601562 13.339844 L 37.132812 13.246094 C 36.878906 13.207031 36.375 13.234375 36 13.328125 C 34.867188 13.597656 34.292969 14.632812 34.707031 15.65625 C 35.105469 16.597656 36.148438 16.867188 37.171875 16.289062 L 37.707031 15.992188 L 38.121094 16.300781 C 38.507812 16.585938 38.546875 16.597656 38.761719 16.382812 C 38.945312 16.195312 38.960938 16.085938 38.828125 15.640625 C 38.734375 15.347656 38.667969 14.472656 38.667969 13.691406 C 38.667969 12.910156 38.613281 12.117188 38.535156 11.925781 C 38.238281 11.121094 37.011719 10.835938 35.558594 11.242188 Z M 37.601562 14.605469 C 37.601562 15.144531 37.546875 15.238281 37.171875 15.480469 C 36.585938 15.84375 36.066406 15.832031 35.8125 15.453125 C 35.519531 15.023438 35.546875 14.714844 35.933594 14.335938 C 36.1875 14.066406 36.386719 14 36.933594 14 L 37.601562 14 Z M 37.601562 14.605469 "/>
<path style=" stroke:none;fill-rule:nonzero;fill:rgb(0%,0%,0%);fill-opacity:1;" d="M 42.398438 11.132812 C 42.292969 11.171875 42.039062 11.363281 41.839844 11.550781 L 41.464844 11.886719 L 41.199219 11.535156 C 40.667969 10.851562 39.945312 11.214844 40.320312 11.96875 C 40.492188 12.277344 40.535156 12.828125 40.535156 14.390625 L 40.535156 16.421875 L 40.867188 16.503906 C 41.558594 16.679688 41.601562 16.585938 41.601562 14.605469 C 41.601562 12.800781 41.601562 12.773438 41.945312 12.453125 C 42.1875 12.238281 42.464844 12.117188 42.761719 12.117188 C 43.226562 12.117188 43.308594 12.019531 43.359375 11.441406 C 43.398438 11.160156 43.347656 11.105469 43 11.078125 C 42.785156 11.066406 42.507812 11.09375 42.398438 11.132812 Z M 42.398438 11.132812 "/>
<path style=" stroke:none;fill-rule:nonzero;fill:rgb(0%,0%,0%);fill-opacity:1;" d="M 44.921875 11.347656 C 44.226562 11.804688 43.867188 12.652344 43.878906 13.796875 C 43.894531 15.117188 44.199219 15.84375 44.972656 16.34375 C 45.945312 16.988281 48.453125 16.140625 47.71875 15.414062 C 47.546875 15.238281 47.464844 15.238281 47 15.480469 C 46.375 15.804688 46.105469 15.816406 45.601562 15.546875 C 45.105469 15.292969 44.894531 14.605469 44.960938 13.515625 C 45.027344 12.492188 45.359375 11.941406 45.945312 11.875 C 46.464844 11.820312 46.800781 12.101562 46.921875 12.652344 C 46.988281 13.003906 47.09375 13.136719 47.308594 13.164062 C 48.28125 13.3125 48.160156 11.914062 47.160156 11.308594 C 46.558594 10.929688 45.507812 10.945312 44.921875 11.347656 Z M 44.921875 11.347656 "/>
<path style=" stroke:none;fill-rule:nonzero;fill:rgb(0%,0%,0%);fill-opacity:1;" d="M 49.933594 11.292969 C 49 11.914062 48.574219 13.554688 48.972656 14.957031 C 49.347656 16.234375 50.28125 16.8125 51.601562 16.558594 C 52.773438 16.328125 53.148438 16.019531 52.828125 15.507812 C 52.734375 15.375 52.601562 15.386719 52.148438 15.546875 C 50.867188 16.003906 50 15.5625 50 14.472656 L 50 14.132812 L 53.039062 14.132812 L 53.132812 13.730469 C 53.28125 13.058594 52.972656 12.074219 52.453125 11.5625 C 52.054688 11.171875 51.894531 11.121094 51.160156 11.078125 C 50.507812 11.039062 50.253906 11.078125 49.933594 11.292969 Z M 51.785156 12.101562 C 51.90625 12.238281 52.054688 12.574219 52.09375 12.84375 L 52.171875 13.328125 L 50 13.328125 L 50 12.9375 C 50 12.316406 50.464844 11.847656 51.054688 11.847656 C 51.375 11.847656 51.640625 11.941406 51.785156 12.101562 Z M 51.785156 12.101562 "/>
<path style=" stroke:none;fill-rule:nonzero;fill:rgb(0%,0%,0%);fill-opacity:1;" d="M 58.171875 11.292969 C 57.640625 11.628906 57.464844 11.953125 57.464844 12.613281 C 57.464844 13.3125 57.800781 13.648438 59 14.203125 C 60.027344 14.6875 60.253906 14.984375 59.90625 15.46875 C 59.679688 15.816406 58.773438 15.859375 58.066406 15.5625 C 57.625 15.375 57.585938 15.375 57.398438 15.65625 C 57.214844 15.925781 57.214844 15.964844 57.464844 16.179688 C 57.867188 16.503906 59.027344 16.71875 59.652344 16.570312 C 60.679688 16.316406 61.292969 15.574219 61.148438 14.742188 C 61.027344 14.132812 60.519531 13.664062 59.625 13.328125 C 58.691406 12.976562 58.535156 12.84375 58.535156 12.453125 C 58.535156 11.96875 58.851562 11.804688 59.574219 11.898438 C 60.839844 12.0625 60.828125 12.0625 60.945312 11.75 C 61.105469 11.335938 60.707031 11.144531 59.535156 11.078125 C 58.773438 11.023438 58.519531 11.066406 58.171875 11.292969 Z M 58.171875 11.292969 "/>
</g>
</svg>
