<?xml version="1.0" encoding="UTF-8"?>
<svg xmlns="http://www.w3.org/2000/svg" xmlns:xlink="http://www.w3.org/1999/xlink" width="84px" height="16px" viewBox="0 0 82 16" version="1.1">
<g id="surface1">
<path style=" stroke:none;fill-rule:nonzero;fill:rgb(0%,0%,0%);fill-opacity:1;" d="M 1.585938 1.945312 C 1.542969 2.125 1.503906 4.765625 1.503906 7.835938 C 1.503906 13.328125 1.503906 13.425781 1.777344 13.425781 C 2.050781 13.425781 2.050781 13.328125 2.050781 7.738281 L 2.050781 2.054688 L 5.03125 2.027344 C 8.882812 1.984375 9.363281 2.015625 10.058594 2.316406 C 10.753906 2.628906 11.644531 3.492188 12.011719 4.234375 C 12.914062 5.984375 12.203125 8.300781 10.453125 9.382812 C 9.8125 9.78125 9.757812 9.792969 7.695312 9.835938 C 5.738281 9.890625 5.601562 9.902344 5.601562 10.152344 C 5.601562 10.398438 5.710938 10.410156 7.214844 10.410156 C 9.664062 10.398438 10.726562 10.070312 11.699219 9.015625 C 12.53125 8.109375 12.886719 7.054688 12.820312 5.671875 C 12.777344 4.792969 12.683594 4.4375 12.410156 3.957031 C 11.945312 3.179688 11.164062 2.4375 10.386719 2.027344 C 9.785156 1.726562 9.664062 1.710938 5.726562 1.671875 L 1.679688 1.628906 Z M 1.585938 1.945312 "/>
<path style=" stroke:none;fill-rule:nonzero;fill:rgb(0%,0%,0%);fill-opacity:1;" d="M 2.597656 8.015625 C 2.597656 12.710938 2.625 13.425781 2.800781 13.425781 C 2.980469 13.425781 3.007812 12.726562 3.035156 8.246094 L 3.074219 3.082031 L 6.054688 3.054688 C 9.292969 3.027344 9.664062 3.097656 10.425781 3.808594 C 11.808594 5.109375 11.589844 7.519531 10.003906 8.464844 C 9.402344 8.808594 9.238281 8.835938 7.488281 8.875 C 5.984375 8.917969 5.601562 8.972656 5.601562 9.125 C 5.601562 9.410156 8.964844 9.398438 9.648438 9.109375 C 11.015625 8.535156 11.792969 7.410156 11.792969 5.984375 C 11.78125 4.929688 11.507812 4.273438 10.78125 3.5625 C 9.894531 2.710938 9.347656 2.601562 5.710938 2.601562 L 2.597656 2.601562 Z M 2.597656 8.015625 "/>
<path style=" stroke:none;fill-rule:nonzero;fill:rgb(0%,0%,0%);fill-opacity:1;" d="M 64.234375 2.863281 C 63.195312 3.179688 62.375 3.929688 61.882812 5 C 61.445312 5.957031 61.445312 7.984375 61.867188 8.917969 C 62.949219 11.300781 65.777344 12.191406 68.988281 11.152344 L 69.699219 10.917969 L 69.699219 6.847656 L 66.421875 6.847656 L 66.421875 8.492188 L 66.898438 8.492188 C 67.335938 8.492188 67.375 8.519531 67.375 8.890625 C 67.375 9.382812 67.0625 9.519531 66.214844 9.382812 C 65.039062 9.21875 64.507812 8.4375 64.507812 6.917969 C 64.507812 5.425781 65.109375 4.65625 66.285156 4.65625 C 66.992188 4.65625 67.417969 4.984375 67.582031 5.644531 C 67.675781 6.015625 67.703125 6.027344 68.621094 6.027344 L 69.5625 6.027344 L 69.5625 2.875 L 68.867188 2.875 C 68.222656 2.875 68.167969 2.902344 68.03125 3.300781 L 67.894531 3.710938 L 67.582031 3.425781 C 66.980469 2.863281 65.21875 2.5625 64.234375 2.863281 Z M 64.234375 2.863281 "/>
<path style=" stroke:none;fill-rule:nonzero;fill:rgb(0%,0%,0%);fill-opacity:1;" d="M 14.214844 3.765625 L 14.214844 4.65625 L 15.035156 4.65625 L 15.035156 9.589844 L 14.214844 9.589844 L 14.214844 11.507812 L 19.132812 11.507812 L 19.132812 9.589844 L 17.628906 9.589844 L 17.628906 8.21875 L 18.628906 8.21875 C 19.175781 8.21875 19.941406 8.125 20.308594 8.015625 C 22.152344 7.464844 22.753906 5.152344 21.402344 3.726562 C 20.730469 3.015625 20.035156 2.875 16.917969 2.875 L 14.214844 2.875 Z M 19.160156 4.890625 C 19.3125 5.027344 19.40625 5.300781 19.40625 5.628906 C 19.40625 6.289062 18.914062 6.710938 18.164062 6.710938 L 17.628906 6.710938 L 17.628906 4.65625 L 18.273438 4.65625 C 18.667969 4.65625 18.996094 4.738281 19.160156 4.890625 Z M 19.160156 4.890625 "/>
<path style=" stroke:none;fill-rule:nonzero;fill:rgb(0%,0%,0%);fill-opacity:1;" d="M 70.792969 3.835938 L 70.792969 4.792969 L 71.613281 4.792969 L 71.585938 7.152344 L 71.546875 9.519531 L 71.175781 9.5625 C 70.792969 9.601562 70.792969 9.617188 70.792969 10.5625 L 70.792969 11.507812 L 74.894531 11.507812 L 74.894531 10.546875 C 74.894531 9.617188 74.878906 9.589844 74.550781 9.589844 C 74.222656 9.589844 74.210938 9.546875 74.210938 8.835938 L 74.210938 8.082031 L 76.546875 8.082031 L 76.507812 8.792969 C 76.464844 9.480469 76.4375 9.519531 76.082031 9.5625 C 75.699219 9.601562 75.699219 9.617188 75.742188 10.519531 L 75.78125 11.4375 L 79.882812 11.4375 L 79.921875 10.507812 L 79.964844 9.589844 L 79.128906 9.589844 L 79.128906 4.808594 L 79.511719 4.765625 C 79.867188 4.726562 79.882812 4.699219 79.921875 3.792969 L 79.964844 2.875 L 75.699219 2.875 L 75.742188 3.792969 C 75.78125 4.699219 75.796875 4.726562 76.164062 4.765625 C 76.535156 4.808594 76.546875 4.835938 76.507812 5.519531 L 76.464844 6.234375 L 75.34375 6.273438 L 74.210938 6.316406 L 74.210938 5.546875 C 74.210938 4.835938 74.222656 4.792969 74.550781 4.792969 C 74.878906 4.792969 74.894531 4.765625 74.894531 3.835938 L 74.894531 2.875 L 70.792969 2.875 Z M 70.792969 3.835938 "/>
<path style=" stroke:none;fill-rule:nonzero;fill:rgb(0%,0%,0%);fill-opacity:1;" d="M 50.363281 3.21875 C 50.292969 3.246094 49.800781 3.300781 49.296875 3.355469 L 48.367188 3.453125 L 48.40625 4.152344 C 48.449219 4.808594 48.476562 4.863281 48.832031 4.902344 L 49.199219 4.945312 L 49.199219 9.847656 L 48.832031 9.890625 C 48.460938 9.929688 48.449219 9.957031 48.449219 10.683594 L 48.449219 11.4375 L 50.472656 11.480469 L 52.480469 11.519531 L 52.480469 9.863281 L 51.660156 9.863281 L 51.660156 3.152344 L 51.085938 3.164062 C 50.757812 3.164062 50.445312 3.191406 50.363281 3.21875 Z M 50.363281 3.21875 "/>
<path style=" stroke:none;fill-rule:nonzero;fill:rgb(0%,0%,0%);fill-opacity:1;" d="M 3.664062 3.628906 C 3.59375 3.699219 3.554688 5.917969 3.554688 8.589844 C 3.554688 13.328125 3.554688 13.425781 3.828125 13.425781 C 4.101562 13.425781 4.101562 13.328125 4.101562 8.78125 L 4.101562 4.152344 L 6.394531 4.082031 C 8.980469 4 9.253906 4.054688 9.949219 4.847656 C 10.480469 5.453125 10.535156 6.246094 10.113281 6.945312 C 9.675781 7.671875 9.253906 7.808594 7.3125 7.808594 C 5.699219 7.808594 5.601562 7.820312 5.601562 8.082031 C 5.601562 8.34375 5.699219 8.355469 7.148438 8.355469 C 7.980469 8.355469 8.882812 8.300781 9.144531 8.21875 C 10.03125 7.972656 10.796875 6.902344 10.796875 5.917969 C 10.796875 5.207031 10.128906 4.164062 9.484375 3.890625 C 8.953125 3.671875 3.839844 3.4375 3.664062 3.628906 Z M 3.664062 3.628906 "/>
<path style=" stroke:none;fill-rule:nonzero;fill:rgb(0%,0%,0%);fill-opacity:1;" d="M 4.648438 9.054688 C 4.648438 13.164062 4.660156 13.4375 4.894531 13.398438 C 5.113281 13.355469 5.125 13.027344 5.164062 9.273438 L 5.191406 5.207031 L 7.078125 5.207031 C 9.15625 5.207031 9.292969 5.261719 9.292969 5.972656 C 9.292969 6.710938 8.9375 6.847656 7.148438 6.847656 C 5.863281 6.847656 5.601562 6.890625 5.601562 7.054688 C 5.601562 7.355469 8.828125 7.355469 9.253906 7.054688 C 9.664062 6.765625 9.867188 6 9.675781 5.464844 C 9.445312 4.78125 9.007812 4.65625 6.695312 4.65625 L 4.648438 4.65625 Z M 4.648438 9.054688 "/>
<path style=" stroke:none;fill-rule:nonzero;fill:rgb(0%,0%,0%);fill-opacity:1;" d="M 24.941406 5.699219 C 24.722656 5.726562 24.203125 5.820312 23.820312 5.902344 L 23.097656 6.042969 L 23.097656 7.644531 L 23.617188 7.453125 C 24.394531 7.179688 25.734375 7.207031 26.007812 7.507812 C 26.445312 7.984375 26.292969 8.082031 25.160156 8.070312 C 23.984375 8.054688 23.382812 8.261719 23.027344 8.808594 C 22.261719 9.984375 23.097656 11.507812 24.503906 11.507812 C 25.105469 11.507812 25.816406 11.234375 26.089844 10.902344 C 26.265625 10.683594 26.292969 10.699219 26.457031 11.082031 L 26.636719 11.507812 L 29.382812 11.507812 L 29.382812 10.683594 C 29.382812 9.902344 29.371094 9.863281 29.042969 9.863281 C 28.699219 9.863281 28.699219 9.863281 28.699219 8.507812 C 28.699219 7.34375 28.660156 7.109375 28.386719 6.699219 C 28.222656 6.4375 27.867188 6.125 27.605469 6 C 27.113281 5.765625 25.679688 5.601562 24.941406 5.699219 Z M 26.117188 9.042969 C 26.183594 9.042969 26.238281 9.289062 26.238281 9.589844 C 26.238281 10.054688 26.183594 10.152344 25.898438 10.21875 C 25.488281 10.316406 25.011719 9.972656 25.011719 9.574219 C 25.011719 9.289062 25.542969 8.875 25.800781 8.972656 C 25.910156 9.015625 26.046875 9.042969 26.117188 9.042969 Z M 26.117188 9.042969 "/>
<path style=" stroke:none;fill-rule:nonzero;fill:rgb(0%,0%,0%);fill-opacity:1;" d="M 34.632812 5.765625 C 34.398438 5.835938 34.042969 6.042969 33.839844 6.234375 C 33.632812 6.425781 33.441406 6.574219 33.402344 6.574219 C 33.375 6.574219 33.347656 6.382812 33.347656 6.152344 L 33.347656 5.710938 L 32.089844 5.808594 C 30.164062 5.957031 30.203125 5.945312 30.203125 6.726562 C 30.203125 7.355469 30.230469 7.398438 30.546875 7.398438 C 30.886719 7.398438 30.886719 7.410156 30.886719 8.628906 C 30.886719 9.847656 30.886719 9.863281 30.546875 9.863281 C 30.21875 9.863281 30.203125 9.902344 30.203125 10.683594 L 30.203125 11.507812 L 34.578125 11.507812 L 34.578125 9.863281 L 33.347656 9.863281 L 33.347656 8.972656 C 33.347656 7.929688 33.484375 7.808594 34.5625 7.808594 L 35.261719 7.808594 L 35.261719 6.792969 C 35.261719 6.234375 35.21875 5.738281 35.164062 5.710938 C 35.097656 5.683594 34.863281 5.710938 34.632812 5.765625 Z M 34.632812 5.765625 "/>
<path style=" stroke:none;fill-rule:nonzero;fill:rgb(0%,0%,0%);fill-opacity:1;" d="M 38.0625 5.683594 C 37.992188 5.710938 37.761719 5.765625 37.554688 5.808594 C 37.105469 5.902344 36.269531 6.617188 36.011719 7.109375 C 35.683594 7.753906 35.628906 8.683594 35.863281 9.492188 C 36.121094 10.398438 36.859375 11.136719 37.746094 11.382812 C 38.484375 11.574219 40.085938 11.480469 40.769531 11.191406 C 41.257812 10.972656 41.273438 10.957031 41.273438 10.21875 C 41.273438 9.382812 41.175781 9.316406 40.589844 9.65625 C 40.03125 9.984375 39.03125 9.917969 38.582031 9.535156 C 38.253906 9.246094 38.199219 9.109375 38.210938 8.507812 C 38.226562 7.644531 38.539062 7.234375 39.140625 7.289062 C 39.46875 7.316406 39.621094 7.4375 39.769531 7.78125 C 39.960938 8.207031 40.003906 8.21875 40.660156 8.191406 L 41.339844 8.152344 L 41.382812 6.945312 L 41.421875 5.753906 L 40.824219 5.753906 C 40.316406 5.753906 40.195312 5.808594 40.140625 6.042969 L 40.058594 6.328125 L 39.605469 6.054688 C 39.167969 5.78125 38.335938 5.574219 38.0625 5.683594 Z M 38.0625 5.683594 "/>
<path style=" stroke:none;fill-rule:nonzero;fill:rgb(0%,0%,0%);fill-opacity:1;" d="M 44.238281 5.765625 C 43.050781 6.042969 42.367188 6.699219 42.078125 7.863281 C 41.75 9.152344 42.351562 10.507812 43.5 11.136719 C 43.980469 11.382812 44.292969 11.4375 45.375 11.4375 C 46.289062 11.4375 46.820312 11.371094 47.191406 11.207031 C 47.695312 10.972656 47.695312 10.972656 47.695312 10.164062 L 47.695312 9.355469 L 47.054688 9.671875 C 46.042969 10.191406 44.992188 10.027344 44.609375 9.300781 L 44.402344 8.902344 L 46.125 8.902344 C 48.039062 8.902344 47.929688 8.972656 47.832031 7.808594 C 47.765625 6.808594 47.027344 6.027344 45.921875 5.765625 C 45.210938 5.601562 44.949219 5.601562 44.238281 5.765625 Z M 45.675781 7.21875 C 45.8125 7.34375 45.921875 7.5625 45.921875 7.699219 C 45.921875 7.929688 45.824219 7.957031 45.210938 7.917969 C 44.417969 7.875 44.265625 7.683594 44.675781 7.273438 C 45.019531 6.929688 45.332031 6.902344 45.675781 7.21875 Z M 45.675781 7.21875 "/>
<path style=" stroke:none;fill-rule:nonzero;fill:rgb(0%,0%,0%);fill-opacity:1;" d="M 54.613281 5.765625 C 53.519531 6.027344 52.890625 6.875 53.09375 7.808594 C 53.175781 8.179688 53.984375 9.042969 54.257812 9.042969 C 54.324219 9.042969 54.722656 9.164062 55.144531 9.328125 C 55.773438 9.5625 55.898438 9.65625 55.898438 9.945312 C 55.898438 10.453125 55.171875 10.410156 54.667969 9.863281 C 54.351562 9.519531 54.175781 9.453125 53.65625 9.453125 L 53.011719 9.453125 L 53.054688 10.4375 L 53.09375 11.4375 L 53.574219 11.480469 C 53.886719 11.519531 54.09375 11.453125 54.203125 11.300781 C 54.351562 11.097656 54.421875 11.097656 54.996094 11.289062 C 56.414062 11.765625 57.972656 11.398438 58.410156 10.492188 C 59 9.246094 58.355469 8.289062 56.621094 7.820312 C 55.898438 7.617188 55.554688 7.316406 55.773438 7.042969 C 56.035156 6.726562 56.523438 6.820312 56.960938 7.273438 C 57.304688 7.617188 57.453125 7.683594 57.890625 7.644531 L 58.425781 7.601562 L 58.464844 6.671875 L 58.507812 5.753906 L 57.890625 5.753906 C 57.535156 5.753906 57.261719 5.820312 57.234375 5.917969 C 57.179688 6.054688 57.097656 6.054688 56.8125 5.929688 C 56.292969 5.683594 55.226562 5.617188 54.613281 5.765625 Z M 54.613281 5.765625 "/>
</g>
</svg>
