<?xml version="1.0" encoding="UTF-8"?>
<svg xmlns="http://www.w3.org/2000/svg" xmlns:xlink="http://www.w3.org/1999/xlink" width="243px" height="84px" viewBox="0 0 242 84" version="1.1">
<g id="surface1">
<path style=" stroke:none;fill-rule:nonzero;fill:rgb(0%,0%,0%);fill-opacity:1;" d="M 5.242188 42.203125 L 5.242188 79.152344 L 8.066406 79.152344 L 8.148438 43.695312 L 8.269531 8.277344 L 30.046875 8.277344 C 46.785156 8.277344 52.3125 8.398438 53.84375 8.804688 C 62.679688 11.144531 69.535156 17.648438 71.832031 25.847656 C 73.042969 30.207031 72.761719 36.953125 71.230469 40.992188 C 68.929688 46.925781 64.976562 51.53125 59.691406 54.277344 C 55.296875 56.621094 53.523438 56.863281 41.261719 57.023438 L 30.25 57.144531 L 30.25 60.171875 L 40.695312 60.171875 C 53.320312 60.171875 55.820312 59.808594 61.226562 57.144531 C 65.945312 54.800781 70.058594 50.882812 72.316406 46.605469 C 73.125 44.988281 73.808594 43.453125 73.808594 43.171875 C 73.808594 42.847656 74.050781 42.121094 74.375 41.554688 C 75.585938 39.214844 75.867188 29.722656 74.816406 25.644531 C 73.609375 20.960938 71.589844 17.566406 67.597656 13.570312 C 63.402344 9.328125 60.054688 7.351562 55.015625 6.058594 C 52.109375 5.289062 50.457031 5.25 28.554688 5.25 L 5.242188 5.25 Z M 5.242188 42.203125 "/>
<path style=" stroke:none;fill-rule:nonzero;fill:rgb(0%,0%,0%);fill-opacity:1;" d="M 11.695312 45.433594 L 11.695312 79.152344 L 14.519531 79.152344 L 14.519531 14.5 L 33.597656 14.621094 C 54.492188 14.78125 53.683594 14.699219 57.675781 17.40625 C 64.089844 21.765625 67.074219 28.027344 66.105469 35.011719 C 65.136719 41.878906 60.054688 48.058594 53.804688 49.875 C 52.152344 50.359375 49.367188 50.480469 40.980469 50.480469 L 30.25 50.480469 L 30.25 53.792969 L 41.664062 53.628906 C 52.917969 53.46875 53.078125 53.46875 55.820312 52.378906 C 62.597656 49.714844 67.195312 44.222656 68.769531 36.992188 C 69.574219 33.359375 69.414062 29.199219 68.363281 26.25 C 67.679688 24.230469 65.257812 20.113281 63.96875 18.617188 C 62.800781 17.285156 59.410156 14.820312 57.3125 13.730469 C 53.359375 11.75 53.117188 11.710938 31.78125 11.710938 L 11.695312 11.710938 Z M 11.695312 45.433594 "/>
<path style=" stroke:none;fill-rule:nonzero;fill:rgb(0%,0%,0%);fill-opacity:1;" d="M 18.148438 48.664062 L 18.148438 79.152344 L 20.972656 79.152344 L 20.972656 20.960938 L 36.21875 21.082031 C 50.902344 21.203125 51.464844 21.242188 53.039062 22.089844 C 55.417969 23.34375 58.039062 26.046875 58.96875 28.1875 C 60.703125 32.066406 59.734375 37.800781 56.828125 40.789062 C 53.84375 43.859375 53.039062 44.019531 40.898438 44.019531 L 30.25 44.019531 L 30.25 47.25 L 40.738281 47.25 C 50.335938 47.25 51.382812 47.167969 53.441406 46.402344 C 56.34375 45.3125 58.765625 43.453125 60.378906 41.03125 C 62.152344 38.40625 62.71875 36.347656 62.71875 32.308594 C 62.71875 29.441406 62.558594 28.511719 61.667969 26.652344 C 60.339844 23.828125 57.273438 20.757812 54.449219 19.425781 L 52.230469 18.375 L 35.210938 18.253906 L 18.148438 18.132812 Z M 18.148438 48.664062 "/>
<path style=" stroke:none;fill-rule:nonzero;fill:rgb(0%,0%,0%);fill-opacity:1;" d="M 24.601562 51.933594 L 24.601562 79.195312 L 25.933594 79.074219 L 27.226562 78.953125 L 27.347656 53.1875 L 27.425781 27.421875 L 38.882812 27.542969 C 49.8125 27.664062 50.417969 27.703125 51.503906 28.511719 C 53.84375 30.25 54.046875 34.769531 51.828125 36.628906 C 50.78125 37.558594 50.617188 37.558594 40.496094 37.558594 L 30.25 37.558594 L 30.25 40.789062 L 40.292969 40.789062 C 46.707031 40.789062 50.78125 40.625 51.667969 40.34375 C 56.707031 38.648438 58.160156 31.136719 54.289062 26.9375 C 52.230469 24.714844 51.585938 24.632812 37.511719 24.632812 L 24.601562 24.632812 Z M 24.601562 51.933594 "/>
<path style=" stroke:none;fill-rule:nonzero;fill:rgb(0%,0%,0%);fill-opacity:1;" d="M 165.246094 25.726562 C 164.722656 26.25 164.921875 46.96875 165.488281 48.058594 C 166.050781 49.148438 167.707031 49.671875 169.761719 49.351562 C 170.769531 49.230469 171.011719 48.988281 171.011719 48.21875 C 171.011719 47.492188 170.8125 47.25 170.085938 47.25 C 168.269531 47.25 168.191406 46.847656 168.191406 36.507812 C 168.191406 28.148438 168.109375 26.613281 167.542969 26.089844 C 166.898438 25.441406 165.6875 25.242188 165.246094 25.726562 Z M 165.246094 25.726562 "/>
<path style=" stroke:none;fill-rule:nonzero;fill:rgb(0%,0%,0%);fill-opacity:1;" d="M 201.667969 27.421875 C 197.433594 28.914062 195.214844 32.75 195.214844 38.566406 C 195.214844 43.738281 196.867188 47.25 200.175781 48.945312 C 202.152344 49.957031 206.585938 50.078125 209.933594 49.1875 L 211.953125 48.664062 L 212.074219 43.859375 C 212.152344 40.707031 212.03125 38.890625 211.710938 38.527344 C 211.023438 37.679688 205.054688 37.71875 204.730469 38.609375 C 204.410156 39.457031 204.410156 39.414062 205.136719 40.140625 C 205.5 40.503906 206.425781 40.789062 207.355469 40.789062 L 208.925781 40.789062 L 208.925781 43.574219 C 208.925781 45.148438 208.726562 46.523438 208.523438 46.644531 C 208.28125 46.804688 206.949219 46.925781 205.578125 46.925781 C 200.660156 47.007812 198.722656 44.746094 198.683594 38.769531 C 198.683594 34.609375 199.246094 32.75 201.101562 31.097656 C 202.3125 30.046875 202.796875 29.882812 204.8125 29.882812 C 206.265625 29.882812 207.796875 30.207031 208.925781 30.734375 L 210.742188 31.539062 L 211.425781 30.652344 C 211.832031 30.207031 212.152344 29.640625 212.152344 29.398438 C 212.152344 28.792969 208.078125 27.136719 205.902344 26.855469 C 204.449219 26.695312 203.238281 26.855469 201.667969 27.421875 Z M 201.667969 27.421875 "/>
<path style=" stroke:none;fill-rule:nonzero;fill:rgb(0%,0%,0%);fill-opacity:1;" d="M 88.53125 27.542969 C 88.410156 27.824219 88.371094 32.875 88.410156 38.769531 L 88.53125 49.472656 L 91.355469 49.472656 L 91.476562 45.511719 L 91.597656 41.597656 L 94.300781 41.597656 C 97.445312 41.597656 100.066406 40.503906 101.398438 38.648438 C 102.609375 36.992188 102.609375 31.660156 101.398438 30.003906 C 99.746094 27.824219 98.253906 27.257812 93.289062 27.097656 C 89.703125 27.015625 88.691406 27.097656 88.53125 27.542969 Z M 97.808594 30.855469 C 99.019531 32.066406 99.421875 34.246094 98.816406 36.105469 C 98.132812 38.164062 97.082031 38.769531 94.097656 38.769531 L 91.558594 38.769531 L 91.558594 29.882812 L 94.179688 29.882812 C 96.4375 29.882812 96.960938 30.046875 97.808594 30.855469 Z M 97.808594 30.855469 "/>
<path style=" stroke:none;fill-rule:nonzero;fill:rgb(0%,0%,0%);fill-opacity:1;" d="M 217.597656 27.542969 C 217.476562 27.824219 217.4375 32.875 217.476562 38.769531 L 217.597656 49.472656 L 220.421875 49.472656 L 220.542969 44.503906 L 220.664062 39.578125 L 229.859375 39.578125 L 229.980469 44.503906 L 230.101562 49.472656 L 233.328125 49.472656 L 233.328125 27.257812 L 230.101562 27.257812 L 229.980469 31.78125 L 229.859375 36.347656 L 220.664062 36.347656 L 220.542969 31.78125 L 220.421875 27.257812 L 219.089844 27.136719 C 218.285156 27.058594 217.71875 27.21875 217.597656 27.542969 Z M 217.597656 27.542969 "/>
<path style=" stroke:none;fill-rule:nonzero;fill:rgb(0%,0%,0%);fill-opacity:1;" d="M 107.570312 33.722656 C 105.148438 34.367188 105.109375 34.449219 105.429688 35.78125 C 105.671875 36.710938 105.875 36.789062 106.800781 36.546875 C 107.40625 36.425781 108.941406 36.183594 110.230469 36.0625 C 113.054688 35.78125 113.738281 36.265625 113.738281 38.445312 L 113.738281 40.019531 L 112.328125 39.738281 C 111.5625 39.617188 110.03125 39.699219 108.898438 39.980469 C 105.472656 40.789062 103.738281 43.898438 104.988281 46.96875 C 106.199219 49.792969 109.34375 50.601562 112.449219 48.867188 L 114.0625 47.976562 L 115.3125 48.90625 C 116.484375 49.753906 116.605469 49.792969 117.25 49.148438 C 117.8125 48.582031 117.855469 48.257812 117.449219 46.925781 C 117.167969 46.039062 116.964844 43.414062 116.964844 41.070312 C 116.964844 38.730469 116.804688 36.347656 116.5625 35.78125 C 115.675781 33.359375 111.964844 32.507812 107.570312 33.722656 Z M 113.738281 43.816406 C 113.738281 45.433594 113.578125 45.714844 112.449219 46.441406 C 110.675781 47.53125 109.101562 47.492188 108.335938 46.363281 C 107.449219 45.070312 107.527344 44.140625 108.699219 43.007812 C 109.464844 42.203125 110.070312 42 111.722656 42 L 113.738281 42 Z M 113.738281 43.816406 "/>
<path style=" stroke:none;fill-rule:nonzero;fill:rgb(0%,0%,0%);fill-opacity:1;" d="M 128.261719 33.398438 C 127.9375 33.519531 127.171875 34.085938 126.566406 34.648438 L 125.4375 35.660156 L 124.628906 34.609375 C 123.015625 32.550781 120.839844 33.640625 121.96875 35.902344 C 122.492188 36.832031 122.613281 38.488281 122.613281 43.171875 L 122.613281 49.269531 L 123.621094 49.511719 C 125.71875 50.035156 125.839844 49.753906 125.839844 43.816406 C 125.839844 38.40625 125.839844 38.324219 126.886719 37.355469 C 127.613281 36.710938 128.460938 36.347656 129.347656 36.347656 C 130.761719 36.347656 131.003906 36.0625 131.164062 34.328125 C 131.285156 33.480469 131.125 33.316406 130.074219 33.238281 C 129.429688 33.195312 128.582031 33.277344 128.261719 33.398438 Z M 128.261719 33.398438 "/>
<path style=" stroke:none;fill-rule:nonzero;fill:rgb(0%,0%,0%);fill-opacity:1;" d="M 135.882812 34.042969 C 133.785156 35.417969 132.695312 37.960938 132.738281 41.394531 C 132.777344 45.351562 133.703125 47.53125 136.042969 49.027344 C 138.988281 50.964844 146.570312 48.421875 144.351562 46.242188 C 143.828125 45.714844 143.585938 45.714844 142.175781 46.441406 C 140.28125 47.410156 139.472656 47.453125 137.941406 46.644531 C 136.449219 45.875 135.800781 43.816406 136.003906 40.546875 C 136.207031 37.476562 137.214844 35.820312 138.988281 35.621094 C 140.5625 35.457031 141.570312 36.304688 141.933594 37.960938 C 142.132812 39.011719 142.457031 39.414062 143.101562 39.496094 C 146.046875 39.941406 145.683594 35.742188 142.660156 33.921875 C 140.84375 32.792969 137.65625 32.832031 135.882812 34.042969 Z M 135.882812 34.042969 "/>
<path style=" stroke:none;fill-rule:nonzero;fill:rgb(0%,0%,0%);fill-opacity:1;" d="M 151.046875 33.882812 C 148.226562 35.742188 146.933594 40.667969 148.144531 44.867188 C 149.273438 48.703125 152.097656 50.441406 156.089844 49.671875 C 159.640625 48.988281 160.769531 48.058594 159.800781 46.523438 C 159.519531 46.121094 159.113281 46.160156 157.742188 46.644531 C 153.871094 48.015625 151.25 46.683594 151.25 43.414062 L 151.25 42.402344 L 160.445312 42.402344 L 160.726562 41.191406 C 161.171875 39.171875 160.246094 36.226562 158.671875 34.691406 C 157.460938 33.519531 156.976562 33.359375 154.757812 33.238281 C 152.78125 33.117188 152.015625 33.238281 151.046875 33.882812 Z M 156.65625 36.304688 C 157.019531 36.710938 157.460938 37.71875 157.582031 38.527344 L 157.824219 39.980469 L 151.25 39.980469 L 151.25 38.808594 C 151.25 36.953125 152.660156 35.539062 154.4375 35.539062 C 155.40625 35.539062 156.210938 35.820312 156.65625 36.304688 Z M 156.65625 36.304688 "/>
<path style=" stroke:none;fill-rule:nonzero;fill:rgb(0%,0%,0%);fill-opacity:1;" d="M 175.972656 33.882812 C 174.359375 34.890625 173.835938 35.863281 173.835938 37.839844 C 173.835938 39.941406 174.84375 40.949219 178.476562 42.605469 C 181.582031 44.058594 182.265625 44.949219 181.21875 46.402344 C 180.53125 47.453125 177.789062 47.574219 175.652344 46.683594 C 174.320312 46.121094 174.199219 46.121094 173.636719 46.96875 C 173.070312 47.773438 173.070312 47.894531 173.835938 48.542969 C 175.046875 49.511719 178.554688 50.15625 180.453125 49.714844 C 183.558594 48.945312 185.414062 46.726562 184.96875 44.222656 C 184.605469 42.402344 183.074219 40.992188 180.371094 39.980469 C 177.546875 38.929688 177.0625 38.527344 177.0625 37.355469 C 177.0625 35.902344 178.03125 35.417969 180.210938 35.699219 C 184.039062 36.183594 184 36.183594 184.363281 35.253906 C 184.847656 34.003906 183.636719 33.4375 180.089844 33.238281 C 177.789062 33.074219 177.023438 33.195312 175.972656 33.882812 Z M 175.972656 33.882812 "/>
</g>
</svg>
