<?xml version="1.0" standalone="no"?>
<!DOCTYPE svg PUBLIC "-//W3C//DTD SVG 20010904//EN"
 "http://www.w3.org/TR/2001/REC-SVG-20010904/DTD/svg10.dtd">
<svg version="1.0" xmlns="http://www.w3.org/2000/svg"
 width="600.000000pt" height="208.000000pt" viewBox="0 0 600.000000 208.000000"
 preserveAspectRatio="xMidYMid meet">

<g transform="translate(0.000000,208.000000) scale(0.100000,-0.100000)"
fill="#000000" stroke="none">
<path d="M130 1035 l0 -915 35 0 35 0 2 878 3 877 540 0 c415 0 552 -3 590
-13 219 -58 389 -219 446 -422 30 -108 23 -275 -15 -375 -57 -147 -155 -261
-286 -329 -109 -58 -153 -64 -457 -68 l-273 -3 0 -37 0 -38 259 0 c313 0 375
9 509 75 117 58 219 155 275 261 20 40 37 78 37 85 0 8 6 26 14 40 30 58 37
293 11 394 -30 116 -80 200 -179 299 -104 105 -187 154 -312 186 -72 19 -113
20 -656 20 l-578 0 0 -915z"/>
<path d="M290 955 l0 -835 35 0 35 0 0 801 0 800 473 -3 c518 -4 498 -2 597
-69 159 -108 233 -263 209 -436 -24 -170 -150 -323 -305 -368 -41 -12 -110
-15 -318 -15 l-266 0 0 -41 0 -41 283 4 c279 4 283 4 351 31 168 66 282 202
321 381 20 90 16 193 -10 266 -17 50 -77 152 -109 189 -29 33 -113 94 -165
121 -98 49 -104 50 -633 50 l-498 0 0 -835z"/>
<path d="M450 875 l0 -755 35 0 35 0 0 721 0 720 378 -3 c364 -3 378 -4 417
-25 59 -31 124 -98 147 -151 43 -96 19 -238 -53 -312 -74 -76 -94 -80 -395
-80 l-264 0 0 -40 0 -40 260 0 c238 0 264 2 315 21 72 27 132 73 172 133 44
65 58 116 58 216 0 71 -4 94 -26 140 -33 70 -109 146 -179 179 l-55 26 -422 3
-423 3 0 -756z"/>
<path d="M610 794 l0 -675 33 3 32 3 3 638 2 638 284 -3 c271 -3 286 -4 313
-24 58 -43 63 -155 8 -201 -26 -23 -30 -23 -281 -23 l-254 0 0 -40 0 -40 249
0 c159 0 260 4 282 11 125 42 161 228 65 332 -51 55 -67 57 -416 57 l-320 0 0
-676z"/>
<path d="M4097 1443 c-13 -13 -8 -526 6 -553 14 -27 55 -40 106 -32 25 3 31 9
31 28 0 18 -5 24 -23 24 -45 0 -47 10 -47 266 0 207 -2 245 -16 258 -16 16
-46 21 -57 9z"/>
<path d="M5000 1401 c-105 -37 -160 -132 -160 -276 0 -128 41 -215 123 -257
49 -25 159 -28 242 -6 l50 13 3 119 c2 78 -1 123 -9 132 -17 21 -165 20 -173
-2 -8 -21 -8 -20 10 -38 9 -9 32 -16 55 -16 l39 0 0 -69 c0 -39 -5 -73 -10
-76 -6 -4 -39 -7 -73 -7 -122 -2 -170 54 -171 202 0 103 14 149 60 190 30 26
42 30 92 30 36 0 74 -8 102 -21 l45 -20 17 22 c10 11 18 25 18 31 0 15 -101
56 -155 63 -36 4 -66 0 -105 -14z"/>
<path d="M2195 1398 c-3 -7 -4 -132 -3 -278 l3 -265 35 0 35 0 3 98 3 97 67 0
c78 0 143 27 176 73 30 41 30 173 0 214 -41 54 -78 68 -201 72 -89 2 -114 0
-118 -11z m230 -82 c30 -30 40 -84 25 -130 -17 -51 -43 -66 -117 -66 l-63 0 0
110 0 110 65 0 c56 0 69 -4 90 -24z"/>
<path d="M5395 1398 c-3 -7 -4 -132 -3 -278 l3 -265 35 0 35 0 3 123 3 122
114 0 114 0 3 -122 3 -123 40 0 40 0 0 275 0 275 -40 0 -40 0 -3 -112 -3 -113
-114 0 -114 0 -3 113 -3 112 -33 3 c-20 2 -34 -2 -37 -10z"/>
<path d="M2667 1245 c-60 -16 -61 -18 -53 -51 6 -23 11 -25 34 -19 15 3 53 9
85 12 70 7 87 -5 87 -59 l0 -39 -35 7 c-19 3 -57 1 -85 -6 -85 -20 -128 -97
-97 -173 30 -70 108 -90 185 -47 l40 22 31 -23 c29 -21 32 -22 48 -6 14 14 15
22 5 55 -7 22 -12 87 -12 145 0 58 -4 117 -10 131 -22 60 -114 81 -223 51z
m153 -250 c0 -40 -4 -47 -32 -65 -44 -27 -83 -26 -102 2 -22 32 -20 55 9 83
19 20 34 25 75 25 l50 0 0 -45z"/>
<path d="M3180 1253 c-8 -3 -27 -17 -42 -31 l-28 -25 -20 26 c-40 51 -94 24
-66 -32 13 -23 16 -64 16 -180 l0 -151 25 -6 c52 -13 55 -6 55 141 0 134 0
136 26 160 18 16 39 25 61 25 35 0 41 7 45 50 3 21 -1 25 -27 27 -16 1 -37 -1
-45 -4z"/>
<path d="M3369 1237 c-52 -34 -79 -97 -78 -182 1 -98 24 -152 82 -189 73 -48
261 15 206 69 -13 13 -19 13 -54 -5 -47 -24 -67 -25 -105 -5 -37 19 -53 70
-48 151 5 76 30 117 74 122 39 4 64 -17 73 -58 5 -26 13 -36 29 -38 73 -11 64
93 -11 138 -45 28 -124 27 -168 -3z"/>
<path d="M3745 1241 c-70 -46 -102 -168 -72 -272 28 -95 98 -138 197 -119 88
17 116 40 92 78 -7 10 -17 9 -51 -3 -96 -34 -161 -1 -161 80 l0 25 114 0 114
0 7 30 c11 50 -12 123 -51 161 -30 29 -42 33 -97 36 -49 3 -68 0 -92 -16z
m139 -60 c9 -10 20 -35 23 -55 l6 -36 -82 0 -81 0 0 29 c0 46 35 81 79 81 24
0 44 -7 55 -19z"/>
<path d="M4363 1241 c-40 -25 -53 -49 -53 -98 0 -52 25 -77 115 -118 77 -36
94 -58 68 -94 -17 -26 -85 -29 -138 -7 -33 14 -36 14 -50 -7 -14 -20 -14 -23
5 -39 30 -24 117 -40 164 -29 77 19 123 74 112 136 -9 45 -47 80 -114 105 -70
26 -82 36 -82 65 0 36 24 48 78 41 95 -12 94 -12 103 11 12 31 -18 45 -106 50
-57 4 -76 1 -102 -16z"/>
</g>
</svg>
