<svg xmlns="http://www.w3.org/2000/svg" version="1.0" width="600.000000pt" height="117.000000pt" viewBox="0 0 600.000000 117.000000" preserveAspectRatio="xMidYMid meet">

<g transform="translate(0.000000,117.000000) scale(0.100000,-0.100000)" fill="#673ab7" stroke="none">
<path d="M116 1028 c-3 -13 -6 -206 -6 -430 0 -401 0 -408 20 -408 20 0 20 7 20 415 l0 415 218 2 c282 3 317 1 368 -21 51 -23 116 -86 143 -140 66 -128 14 -297 -114 -376 -47 -29 -51 -30 -202 -33 -143 -4 -153 -5 -153 -23 0 -18 8 -19 118 -19 179 1 257 25 328 102 61 66 87 143 82 244 -3 64 -10 90 -30 125 -34 57 -91 111 -148 141 -44 22 -53 23 -341 26 l-296 3 -7 -23z" fill="#673ab7"/>
<path d="M190 585 c0 -343 2 -395 15 -395 13 0 15 51 17 378 l3 377 218 2 c237 2 264 -3 320 -55 101 -95 85 -271 -31 -340 -44 -25 -56 -27 -184 -30 -110 -3 -138 -7 -138 -18 0 -21 246 -20 296 1 100 42 157 124 157 228 -1 77 -21 125 -74 177 -65 62 -105 70 -371 70 l-228 0 0 -395z" fill="#673ab7"/>
<path d="M4700 961 c-76 -23 -136 -78 -172 -156 -32 -70 -32 -218 -1 -286 79 -174 286 -239 521 -163 l52 17 0 149 0 148 -120 0 -120 0 0 -60 0 -60 35 0 c32 0 35 -2 35 -29 0 -36 -23 -46 -85 -36 -86 12 -125 69 -125 180 0 109 44 165 130 165 52 0 83 -24 95 -72 7 -27 9 -28 76 -28 l69 0 0 115 0 115 -51 0 c-47 0 -51 -2 -61 -31 l-10 -30 -23 21 c-44 41 -173 63 -245 41z" fill="#673ab7"/>
<path d="M1040 895 l0 -65 30 0 30 0 0 -180 0 -180 -30 0 -30 0 0 -70 0 -70 180 0 180 0 0 70 0 70 -55 0 -55 0 0 50 0 50 73 0 c40 0 96 7 123 15 135 40 179 209 80 313 -49 52 -100 62 -328 62 l-198 0 0 -65z m362 -82 c11 -10 18 -30 18 -54 0 -48 -36 -79 -91 -79 l-39 0 0 75 0 75 47 0 c29 0 53 -6 65 -17z" fill="#673ab7"/>
<path d="M5180 890 l0 -70 30 0 30 0 -2 -172 -3 -173 -27 -3 c-28 -3 -28 -4 -28 -73 l0 -69 150 0 150 0 0 70 c0 68 -1 70 -25 70 -24 0 -25 3 -25 55 l0 55 86 0 85 0 -3 -52 c-3 -50 -5 -53 -31 -56 -28 -3 -28 -4 -25 -70 l3 -67 150 0 150 0 3 68 3 67 -31 0 -30 0 0 174 0 175 28 3 c26 3 27 5 30 71 l3 67 -156 0 -156 0 3 -67 c3 -66 4 -68 31 -71 27 -3 28 -5 25 -55 l-3 -52 -82 -3 -83 -3 0 56 c0 52 1 55 25 55 24 0 25 2 25 70 l0 70 -150 0 -150 0 0 -70z" fill="#673ab7"/>
<path d="M3685 935 c-5 -2 -41 -6 -78 -10 l-68 -7 3 -51 c3 -48 5 -52 31 -55 l27 -3 0 -179 0 -179 -27 -3 c-27 -3 -28 -5 -28 -58 l0 -55 148 -3 147 -3 0 61 0 60 -30 0 -30 0 0 245 0 245 -42 -1 c-24 0 -47 -2 -53 -4z" fill="#673ab7"/>
<path d="M268 905 c-5 -5 -8 -167 -8 -362 0 -346 0 -353 20 -353 20 0 20 7 20 339 l0 338 168 5 c189 6 209 2 260 -56 39 -44 43 -102 12 -153 -32 -53 -63 -63 -205 -63 -118 0 -125 -1 -125 -20 0 -19 7 -20 113 -20 61 0 127 4 146 10 65 18 121 96 121 168 0 52 -49 128 -96 148 -39 16 -413 33 -426 19z" fill="#673ab7"/>
<path d="M340 509 c0 -300 1 -320 18 -317 16 3 17 27 20 301 l2 297 138 0 c152 0 162 -4 162 -56 0 -54 -26 -64 -157 -64 -94 0 -113 -3 -113 -15 0 -22 236 -22 267 0 30 21 45 77 31 116 -17 50 -49 59 -218 59 l-150 0 0 -321z" fill="#673ab7"/>
<path d="M1825 754 c-16 -2 -54 -9 -82 -15 l-53 -10 0 -59 0 -58 38 14 c57 20 155 18 175 -4 32 -35 21 -42 -62 -41 -86 1 -130 -14 -156 -54 -56 -86 5 -197 108 -197 44 0 96 20 116 44 13 16 15 15 27 -13 l13 -31 101 0 100 0 0 60 c0 57 -1 60 -25 60 -25 0 -25 0 -25 99 0 85 -3 102 -23 132 -12 19 -38 42 -57 51 -36 17 -141 29 -195 22z m86 -244 c5 0 9 -18 9 -40 0 -34 -4 -41 -25 -46 -30 -7 -65 18 -65 47 0 21 39 51 58 44 8 -3 18 -5 23 -5z" fill="#673ab7"/>
<path d="M2534 749 c-17 -5 -43 -20 -58 -34 -15 -14 -29 -25 -32 -25 -2 0 -4 14 -4 31 l0 32 -92 -7 c-141 -11 -138 -10 -138 -67 0 -46 2 -49 25 -49 25 0 25 -1 25 -90 0 -89 0 -90 -25 -90 -24 0 -25 -3 -25 -60 l0 -60 160 0 160 0 0 60 0 60 -45 0 -45 0 0 65 c0 76 10 85 89 85 l51 0 0 74 c0 41 -3 77 -7 79 -5 2 -22 0 -39 -4z" fill="#673ab7"/>
<path d="M2785 755 c-5 -2 -22 -6 -37 -9 -33 -7 -94 -59 -113 -95 -24 -47 -28 -115 -11 -174 19 -66 73 -120 138 -138 54 -14 171 -7 221 14 36 16 37 17 37 71 0 61 -7 66 -50 41 -41 -24 -114 -19 -147 9 -24 21 -28 31 -27 75 1 63 24 93 68 89 24 -2 35 -11 46 -36 14 -31 17 -32 65 -30 l50 3 3 88 3 87 -44 0 c-37 0 -46 -4 -50 -21 l-6 -21 -33 20 c-32 20 -93 35 -113 27z" fill="#673ab7"/>
<path d="M3237 749 c-87 -20 -137 -68 -158 -153 -24 -94 20 -193 104 -239 35 -18 58 -22 137 -22 67 0 106 5 133 17 37 17 37 17 37 76 l0 59 -47 -23 c-74 -38 -151 -26 -179 27 l-15 29 126 0 c140 0 132 -5 125 80 -5 73 -59 130 -140 149 -52 12 -71 12 -123 0z m105 -106 c10 -9 18 -25 18 -35 0 -17 -7 -19 -52 -16 -58 3 -69 17 -39 47 25 25 48 27 73 4z" fill="#673ab7"/>
<path d="M3996 749 c-80 -19 -126 -81 -111 -149 6 -27 65 -90 85 -90 5 0 34 -9 65 -21 46 -17 55 -24 55 -45 0 -37 -53 -34 -90 6 -23 25 -36 30 -74 30 l-47 0 3 -72 3 -73 35 -3 c23 -3 38 2 46 13 11 15 16 15 58 1 104 -35 218 -8 250 58 43 91 -4 161 -131 195 -53 15 -78 37 -62 57 19 23 55 16 87 -17 25 -25 36 -30 68 -27 l39 3 3 68 3 67 -45 0 c-26 0 -46 -5 -48 -12 -4 -10 -10 -10 -31 -1 -38 18 -116 23 -161 12z" fill="#673ab7"/>
</g>
</svg>