<?xml version="1.0" encoding="UTF-8"?>
<svg xmlns="http://www.w3.org/2000/svg" xmlns:xlink="http://www.w3.org/1999/xlink" width="154px" height="30px" viewBox="0 0 154 30" version="1.1">
<g id="surface1">
<path style=" stroke:none;fill-rule:nonzero;fill:rgb(40.392157%,22.745098%,71.764706%);fill-opacity:1;" d="M 2.976562 3.648438 C 2.898438 3.980469 2.824219 8.9375 2.824219 14.691406 C 2.824219 24.992188 2.824219 25.171875 3.335938 25.171875 C 3.851562 25.171875 3.851562 24.992188 3.851562 14.511719 L 3.851562 3.851562 L 9.445312 3.800781 C 16.683594 3.722656 17.582031 3.777344 18.890625 4.339844 C 20.199219 4.929688 21.867188 6.550781 22.5625 7.9375 C 24.253906 11.222656 22.921875 15.566406 19.636719 17.59375 C 18.429688 18.339844 18.324219 18.363281 14.449219 18.441406 C 10.78125 18.542969 10.523438 18.570312 10.523438 19.03125 C 10.523438 19.496094 10.730469 19.519531 13.550781 19.519531 C 18.144531 19.496094 20.148438 18.878906 21.96875 16.902344 C 23.535156 15.207031 24.203125 13.226562 24.074219 10.632812 C 24 8.988281 23.820312 8.320312 23.304688 7.421875 C 22.433594 5.957031 20.96875 4.570312 19.507812 3.800781 C 18.378906 3.234375 18.144531 3.210938 10.753906 3.132812 L 3.15625 3.054688 Z M 2.976562 3.648438 "/>
<path style=" stroke:none;fill-rule:nonzero;fill:rgb(40.392157%,22.745098%,71.764706%);fill-opacity:1;" d="M 4.875 15.027344 C 4.875 23.835938 4.929688 25.171875 5.261719 25.171875 C 5.59375 25.171875 5.648438 23.859375 5.699219 15.460938 L 5.773438 5.777344 L 11.371094 5.726562 C 17.453125 5.675781 18.144531 5.804688 19.582031 7.140625 C 22.175781 9.582031 21.765625 14.101562 18.789062 15.875 C 17.660156 16.515625 17.351562 16.566406 14.066406 16.644531 C 11.242188 16.722656 10.523438 16.824219 10.523438 17.105469 C 10.523438 17.644531 16.835938 17.621094 18.121094 17.082031 C 20.6875 16 22.148438 13.894531 22.148438 11.222656 C 22.125 9.246094 21.613281 8.015625 20.25 6.679688 C 18.582031 5.085938 17.554688 4.878906 10.730469 4.878906 L 4.875 4.878906 Z M 4.875 15.027344 "/>
<path style=" stroke:none;fill-rule:nonzero;fill:rgb(40.392157%,22.745098%,71.764706%);fill-opacity:1;" d="M 120.632812 5.367188 C 118.683594 5.957031 117.144531 7.371094 116.21875 9.375 C 115.398438 11.171875 115.398438 14.972656 116.191406 16.722656 C 118.21875 21.191406 123.535156 22.859375 129.566406 20.90625 L 130.898438 20.472656 L 130.898438 12.84375 L 124.738281 12.84375 L 124.738281 15.925781 L 125.636719 15.925781 C 126.460938 15.925781 126.535156 15.976562 126.535156 16.667969 C 126.535156 17.59375 125.945312 17.851562 124.355469 17.59375 C 122.148438 17.285156 121.148438 15.820312 121.148438 12.972656 C 121.148438 10.171875 122.277344 8.734375 124.484375 8.734375 C 125.816406 8.734375 126.613281 9.347656 126.921875 10.582031 C 127.101562 11.277344 127.152344 11.300781 128.871094 11.300781 L 130.644531 11.300781 L 130.644531 5.394531 L 129.335938 5.394531 C 128.128906 5.394531 128.023438 5.445312 127.769531 6.191406 L 127.511719 6.960938 L 126.921875 6.421875 C 125.792969 5.367188 122.480469 4.804688 120.632812 5.367188 Z M 120.632812 5.367188 "/>
<path style=" stroke:none;fill-rule:nonzero;fill:rgb(40.392157%,22.745098%,71.764706%);fill-opacity:1;" d="M 26.691406 7.0625 L 26.691406 8.734375 L 28.234375 8.734375 L 28.234375 17.980469 L 26.691406 17.980469 L 26.691406 21.574219 L 35.933594 21.574219 L 35.933594 17.980469 L 33.109375 17.980469 L 33.109375 15.410156 L 34.984375 15.410156 C 36.011719 15.410156 37.449219 15.230469 38.140625 15.027344 C 41.605469 14 42.734375 9.65625 40.195312 6.984375 C 38.9375 5.652344 37.628906 5.394531 31.773438 5.394531 L 26.691406 5.394531 Z M 35.984375 9.167969 C 36.265625 9.425781 36.445312 9.941406 36.445312 10.554688 C 36.445312 11.789062 35.523438 12.585938 34.109375 12.585938 L 33.109375 12.585938 L 33.109375 8.734375 L 34.316406 8.734375 C 35.0625 8.734375 35.675781 8.886719 35.984375 9.167969 Z M 35.984375 9.167969 "/>
<path style=" stroke:none;fill-rule:nonzero;fill:rgb(40.392157%,22.745098%,71.764706%);fill-opacity:1;" d="M 132.953125 7.191406 L 132.953125 8.988281 L 134.492188 8.988281 L 134.441406 13.40625 L 134.363281 17.851562 L 133.671875 17.929688 C 132.953125 18.003906 132.953125 18.03125 132.953125 19.804688 L 132.953125 21.574219 L 140.652344 21.574219 L 140.652344 19.777344 C 140.652344 18.03125 140.628906 17.980469 140.011719 17.980469 C 139.394531 17.980469 139.371094 17.902344 139.371094 16.566406 L 139.371094 15.152344 L 143.757812 15.152344 L 143.683594 16.488281 C 143.605469 17.773438 143.554688 17.851562 142.886719 17.929688 C 142.167969 18.003906 142.167969 18.03125 142.246094 19.726562 L 142.320312 21.445312 L 150.023438 21.445312 L 150.097656 19.699219 L 150.175781 17.980469 L 148.609375 17.980469 L 148.609375 9.015625 L 149.328125 8.9375 C 149.996094 8.859375 150.023438 8.808594 150.097656 7.113281 L 150.175781 5.394531 L 142.167969 5.394531 L 142.246094 7.113281 C 142.320312 8.808594 142.347656 8.859375 143.039062 8.9375 C 143.734375 9.015625 143.757812 9.066406 143.683594 10.351562 L 143.605469 11.6875 L 141.5 11.765625 L 139.371094 11.839844 L 139.371094 10.402344 C 139.371094 9.066406 139.394531 8.988281 140.011719 8.988281 C 140.628906 8.988281 140.652344 8.9375 140.652344 7.191406 L 140.652344 5.394531 L 132.953125 5.394531 Z M 132.953125 7.191406 "/>
<path style=" stroke:none;fill-rule:nonzero;fill:rgb(40.392157%,22.745098%,71.764706%);fill-opacity:1;" d="M 94.582031 6.035156 C 94.453125 6.085938 93.53125 6.191406 92.578125 6.292969 L 90.835938 6.472656 L 90.910156 7.78125 C 90.988281 9.015625 91.039062 9.117188 91.707031 9.195312 L 92.398438 9.273438 L 92.398438 18.46875 L 91.707031 18.542969 C 91.015625 18.621094 90.988281 18.671875 90.988281 20.035156 L 90.988281 21.445312 L 94.785156 21.523438 L 98.558594 21.601562 L 98.558594 18.492188 L 97.019531 18.492188 L 97.019531 5.90625 L 95.941406 5.933594 C 95.324219 5.933594 94.734375 5.984375 94.582031 6.035156 Z M 94.582031 6.035156 "/>
<path style=" stroke:none;fill-rule:nonzero;fill:rgb(40.392157%,22.745098%,71.764706%);fill-opacity:1;" d="M 6.878906 6.804688 C 6.75 6.933594 6.671875 11.097656 6.671875 16.105469 C 6.671875 24.992188 6.671875 25.171875 7.1875 25.171875 C 7.699219 25.171875 7.699219 24.992188 7.699219 16.464844 L 7.699219 7.78125 L 12.011719 7.652344 C 16.863281 7.5 17.375 7.601562 18.683594 9.09375 C 19.6875 10.222656 19.789062 11.710938 18.992188 13.023438 C 18.171875 14.382812 17.375 14.640625 13.730469 14.640625 C 10.703125 14.640625 10.523438 14.667969 10.523438 15.152344 C 10.523438 15.640625 10.703125 15.667969 13.421875 15.667969 C 14.988281 15.667969 16.683594 15.566406 17.171875 15.410156 C 18.839844 14.949219 20.277344 12.945312 20.277344 11.097656 C 20.277344 9.761719 19.019531 7.808594 17.8125 7.292969 C 16.8125 6.882812 7.210938 6.445312 6.878906 6.804688 Z M 6.878906 6.804688 "/>
<path style=" stroke:none;fill-rule:nonzero;fill:rgb(40.392157%,22.745098%,71.764706%);fill-opacity:1;" d="M 8.726562 16.976562 C 8.726562 24.683594 8.753906 25.195312 9.1875 25.121094 C 9.597656 25.042969 9.625 24.425781 9.703125 17.390625 L 9.753906 9.761719 L 13.296875 9.761719 C 17.195312 9.761719 17.453125 9.863281 17.453125 11.199219 C 17.453125 12.585938 16.785156 12.84375 13.421875 12.84375 C 11.011719 12.84375 10.523438 12.917969 10.523438 13.226562 C 10.523438 13.792969 16.582031 13.792969 17.375 13.226562 C 18.144531 12.6875 18.53125 11.25 18.171875 10.25 C 17.734375 8.964844 16.914062 8.734375 12.578125 8.734375 L 8.726562 8.734375 Z M 8.726562 16.976562 "/>
<path style=" stroke:none;fill-rule:nonzero;fill:rgb(40.392157%,22.745098%,71.764706%);fill-opacity:1;" d="M 46.839844 10.683594 C 46.429688 10.734375 45.457031 10.917969 44.738281 11.070312 L 43.375 11.328125 L 43.375 14.332031 L 44.351562 13.972656 C 45.816406 13.457031 48.332031 13.511719 48.84375 14.074219 C 49.664062 14.972656 49.382812 15.152344 47.253906 15.128906 C 45.046875 15.101562 43.914062 15.488281 43.25 16.515625 C 41.8125 18.722656 43.375 21.574219 46.019531 21.574219 C 47.148438 21.574219 48.484375 21.0625 48.996094 20.445312 C 49.332031 20.035156 49.382812 20.058594 49.691406 20.777344 L 50.023438 21.574219 L 55.183594 21.574219 L 55.183594 20.035156 C 55.183594 18.570312 55.15625 18.492188 54.542969 18.492188 C 53.898438 18.492188 53.898438 18.492188 53.898438 15.949219 C 53.898438 13.765625 53.824219 13.332031 53.308594 12.558594 C 53 12.070312 52.335938 11.480469 51.847656 11.25 C 50.921875 10.8125 48.226562 10.503906 46.839844 10.683594 Z M 49.050781 16.953125 C 49.175781 16.953125 49.28125 17.414062 49.28125 17.980469 C 49.28125 18.851562 49.175781 19.03125 48.636719 19.160156 C 47.867188 19.339844 46.96875 18.699219 46.96875 17.953125 C 46.96875 17.414062 47.972656 16.644531 48.457031 16.824219 C 48.664062 16.902344 48.921875 16.953125 49.050781 16.953125 Z M 49.050781 16.953125 "/>
<path style=" stroke:none;fill-rule:nonzero;fill:rgb(40.392157%,22.745098%,71.764706%);fill-opacity:1;" d="M 65.039062 10.8125 C 64.601562 10.941406 63.9375 11.328125 63.550781 11.6875 C 63.164062 12.046875 62.804688 12.328125 62.730469 12.328125 C 62.679688 12.328125 62.625 11.96875 62.625 11.53125 L 62.625 10.710938 L 60.265625 10.890625 C 56.644531 11.171875 56.722656 11.148438 56.722656 12.609375 C 56.722656 13.792969 56.773438 13.871094 57.363281 13.871094 C 58.007812 13.871094 58.007812 13.894531 58.007812 16.179688 C 58.007812 18.46875 58.007812 18.492188 57.363281 18.492188 C 56.75 18.492188 56.722656 18.570312 56.722656 20.035156 L 56.722656 21.574219 L 64.9375 21.574219 L 64.9375 18.492188 L 62.625 18.492188 L 62.625 16.824219 C 62.625 14.871094 62.882812 14.640625 64.910156 14.640625 L 66.21875 14.640625 L 66.21875 12.738281 C 66.21875 11.6875 66.144531 10.761719 66.039062 10.710938 C 65.910156 10.660156 65.476562 10.710938 65.039062 10.8125 Z M 65.039062 10.8125 "/>
<path style=" stroke:none;fill-rule:nonzero;fill:rgb(40.392157%,22.745098%,71.764706%);fill-opacity:1;" d="M 71.480469 10.660156 C 71.351562 10.710938 70.917969 10.8125 70.53125 10.890625 C 69.683594 11.070312 68.121094 12.40625 67.632812 13.332031 C 67.015625 14.539062 66.914062 16.285156 67.347656 17.800781 C 67.835938 19.496094 69.222656 20.882812 70.890625 21.34375 C 72.277344 21.703125 75.28125 21.523438 76.5625 20.984375 C 77.488281 20.574219 77.511719 20.546875 77.511719 19.160156 C 77.511719 17.59375 77.332031 17.464844 76.230469 18.109375 C 75.175781 18.722656 73.304688 18.597656 72.457031 17.875 C 71.839844 17.335938 71.738281 17.082031 71.765625 15.949219 C 71.789062 14.332031 72.378906 13.5625 73.507812 13.664062 C 74.125 13.714844 74.40625 13.945312 74.691406 14.589844 C 75.050781 15.386719 75.125 15.410156 76.359375 15.359375 L 77.640625 15.28125 L 77.71875 13.023438 L 77.796875 10.789062 L 76.667969 10.789062 C 75.714844 10.789062 75.484375 10.890625 75.382812 11.328125 L 75.230469 11.867188 L 74.382812 11.351562 C 73.5625 10.839844 71.996094 10.453125 71.480469 10.660156 Z M 71.480469 10.660156 "/>
<path style=" stroke:none;fill-rule:nonzero;fill:rgb(40.392157%,22.745098%,71.764706%);fill-opacity:1;" d="M 83.082031 10.8125 C 80.851562 11.328125 79.566406 12.558594 79.027344 14.742188 C 78.410156 17.15625 79.539062 19.699219 81.695312 20.882812 C 82.59375 21.34375 83.1875 21.445312 85.214844 21.445312 C 86.933594 21.445312 87.933594 21.320312 88.628906 21.011719 C 89.578125 20.574219 89.578125 20.574219 89.578125 19.058594 L 89.578125 17.542969 L 88.371094 18.132812 C 86.472656 19.109375 84.496094 18.800781 83.777344 17.441406 L 83.390625 16.695312 L 86.625 16.695312 C 90.21875 16.695312 90.011719 16.824219 89.832031 14.640625 C 89.703125 12.765625 88.320312 11.300781 86.238281 10.8125 C 84.90625 10.503906 84.417969 10.503906 83.082031 10.8125 Z M 85.777344 13.535156 C 86.035156 13.765625 86.238281 14.179688 86.238281 14.433594 C 86.238281 14.871094 86.058594 14.921875 84.90625 14.847656 C 83.417969 14.769531 83.132812 14.410156 83.90625 13.640625 C 84.546875 12.996094 85.136719 12.945312 85.777344 13.535156 Z M 85.777344 13.535156 "/>
<path style=" stroke:none;fill-rule:nonzero;fill:rgb(40.392157%,22.745098%,71.764706%);fill-opacity:1;" d="M 102.5625 10.8125 C 100.511719 11.300781 99.328125 12.894531 99.714844 14.640625 C 99.867188 15.332031 101.382812 16.953125 101.898438 16.953125 C 102.023438 16.953125 102.769531 17.183594 103.566406 17.492188 C 104.746094 17.929688 104.976562 18.109375 104.976562 18.648438 C 104.976562 19.597656 103.617188 19.519531 102.667969 18.492188 C 102.078125 17.851562 101.742188 17.722656 100.765625 17.722656 L 99.5625 17.722656 L 99.636719 19.570312 L 99.714844 21.445312 L 100.613281 21.523438 C 101.203125 21.601562 101.589844 21.472656 101.792969 21.191406 C 102.078125 20.804688 102.203125 20.804688 103.28125 21.164062 C 105.953125 22.0625 108.878906 21.371094 109.699219 19.675781 C 110.804688 17.335938 109.597656 15.539062 106.335938 14.667969 C 104.976562 14.28125 104.335938 13.714844 104.746094 13.203125 C 105.234375 12.609375 106.15625 12.792969 106.980469 13.640625 C 107.621094 14.28125 107.902344 14.410156 108.722656 14.332031 L 109.726562 14.253906 L 109.800781 12.507812 L 109.878906 10.789062 L 108.722656 10.789062 C 108.058594 10.789062 107.542969 10.917969 107.492188 11.097656 C 107.390625 11.351562 107.234375 11.351562 106.695312 11.121094 C 105.722656 10.660156 103.71875 10.53125 102.5625 10.8125 Z M 102.5625 10.8125 "/>
</g>
</svg>
